<?xml version="1.0" encoding="UTF-8" standalone="no"?>
<!DOCTYPE svg PUBLIC "-//W3C//DTD SVG 1.1//EN" "http://www.w3.org/Graphics/SVG/1.1/DTD/svg11.dtd">
<svg version="1.1" xmlns="http://www.w3.org/2000/svg" xmlns:xlink="http://www.w3.org/1999/xlink" preserveAspectRatio="xMidYMid meet" viewBox="0 0 640 640" width="640" height="640"><defs><path d="M459.68 375.52C443.07 375.52 427.13 382.68 413.48 396.32C409.22 400.58 375.07 434.62 370.8 438.87C367.29 436.98 363.78 435.22 360.4 433.47C355.54 431.04 350.94 428.74 347.03 426.31C307.04 400.91 270.71 367.82 235.86 325C218.97 303.66 207.63 285.69 199.39 267.46C210.46 257.33 220.73 246.79 230.73 236.66C234.51 232.88 238.29 228.96 242.07 225.18C270.44 196.81 270.44 160.07 242.07 131.71C238.38 128.02 208.88 98.52 205.2 94.83C201.01 90.64 196.69 86.32 192.63 82C184.53 73.62 176.02 64.98 167.24 56.88C154.14 43.91 138.47 37.02 121.99 37.02C105.51 37.02 89.57 43.91 76.06 56.88C75.93 57.01 75.93 57.01 75.79 57.15C71.2 61.78 34.46 98.84 29.87 103.48C12.58 120.77 2.72 141.84 0.56 166.29C-2.69 205.73 8.93 242.47 17.85 266.51C39.73 325.54 72.42 380.25 121.18 438.87C180.34 509.52 251.53 565.3 332.84 604.61C363.91 619.33 405.38 636.76 451.71 639.73C454.55 639.86 457.52 640 460.22 640C491.42 640 517.63 628.79 538.16 606.5C538.29 606.23 538.57 606.1 538.7 605.83C545.72 597.32 553.83 589.62 562.34 581.38C568.15 575.84 574.09 570.03 579.9 563.95C593.27 550.04 600.29 533.83 600.29 517.22C600.29 500.47 593.14 484.39 579.49 470.88C574.55 465.92 549.83 441.11 505.34 396.46C486.07 382.5 470.85 375.52 459.68 375.52ZM553.69 538.69C548.43 544.37 543.02 549.5 537.21 555.17C528.43 563.55 519.52 572.33 511.14 582.19C497.5 596.78 481.43 603.66 460.36 603.66C458.33 603.66 456.17 603.66 454.14 603.53C414.02 600.96 376.74 585.29 348.78 571.92C272.33 534.91 205.2 482.37 149.41 415.77C103.35 360.26 72.55 308.93 52.15 253.82C39.59 220.18 35 193.98 37.03 169.26C38.38 153.45 44.46 140.35 55.67 129.14C60.27 124.54 97.12 87.69 101.73 83.08C108.35 76.87 115.37 73.49 122.26 73.49C130.77 73.49 137.66 78.62 141.98 82.95C142.12 83.08 142.25 83.22 142.39 83.35C150.63 91.05 158.46 99.02 166.7 107.53C170.89 111.85 175.21 116.17 179.53 120.63C183.22 124.32 212.72 153.82 216.41 157.51C230.73 171.83 230.73 185.06 216.41 199.38C212.49 203.3 208.71 207.22 204.79 211C193.44 222.61 182.64 233.42 170.89 243.96C170.62 244.23 170.35 244.36 170.21 244.63C158.6 256.25 160.76 267.59 163.19 275.29C163.32 275.7 163.46 276.1 163.59 276.51C173.18 299.74 186.69 321.62 207.22 347.69C207.24 347.71 207.34 347.82 207.36 347.83C244.64 393.76 283.95 429.55 327.31 456.97C332.84 460.48 338.52 463.32 343.92 466.02C348.78 468.45 353.38 470.75 357.29 473.18C357.83 473.45 358.37 473.86 358.91 474.13C363.51 476.42 367.83 477.5 372.29 477.5C383.5 477.5 390.52 470.48 392.82 468.18C397.44 463.56 434.39 426.61 439.01 421.99C443.61 417.39 450.9 411.86 459.41 411.86C467.79 411.86 474.67 417.12 478.86 421.72C479 421.85 479 421.85 479.13 421.99C486.57 429.43 546.12 488.97 553.56 496.41C567.47 510.19 567.47 524.37 553.69 538.69C553.56 538.69 553.56 538.83 553.69 538.69Z" id="o1yF3SS9sV"></path><path d="M439.07 199.61C464.74 225.27 481.35 257.42 487.43 292.81C488.92 301.73 496.62 307.94 505.4 307.94C506.48 307.94 507.42 307.8 508.5 307.67C518.5 306.05 525.12 296.59 523.5 286.6C516.2 243.78 495.94 204.74 465.01 173.81C434.08 142.88 395.04 122.61 352.22 115.32C342.22 113.7 332.9 120.32 331.15 130.18C329.39 140.04 335.88 149.63 345.87 151.25C381.26 157.19 413.41 173.94 439.07 199.61Z" id="e2R5Kaqnq7"></path><path d="M542.95 96.59C491.89 45.53 427.73 12.3 357.22 0.28C347.36 -1.48 338.04 5.28 336.28 15.14C334.66 25.13 341.28 34.45 351.27 36.21C414.22 46.88 471.63 76.73 517.28 122.25C562.94 167.91 592.66 225.32 603.33 288.26C604.81 297.18 612.51 303.39 621.29 303.39C622.37 303.39 623.32 303.25 624.4 303.12C634.26 301.63 641.01 292.18 639.26 282.32C627.24 211.81 594.01 147.65 542.95 96.59Z" id="d2aLYaHnt"></path></defs><g><g><g><use xlink:href="#o1yF3SS9sV" opacity="1" fill="#ffffff" fill-opacity="1"></use><g><use xlink:href="#o1yF3SS9sV" opacity="1" fill-opacity="0" stroke="#000000" stroke-width="1" stroke-opacity="0"></use></g></g><g><use xlink:href="#e2R5Kaqnq7" opacity="1" fill="#ffffff" fill-opacity="1"></use><g><use xlink:href="#e2R5Kaqnq7" opacity="1" fill-opacity="0" stroke="#000000" stroke-width="1" stroke-opacity="0"></use></g></g><g><use xlink:href="#d2aLYaHnt" opacity="1" fill="#ffffff" fill-opacity="1"></use><g><use xlink:href="#d2aLYaHnt" opacity="1" fill-opacity="0" stroke="#000000" stroke-width="1" stroke-opacity="0"></use></g></g></g></g></svg>