<?xml version="1.0" encoding="UTF-8" standalone="no"?>
<!DOCTYPE svg PUBLIC "-//W3C//DTD SVG 1.1//EN" "http://www.w3.org/Graphics/SVG/1.1/DTD/svg11.dtd">
<svg version="1.1" xmlns="http://www.w3.org/2000/svg" xmlns:xlink="http://www.w3.org/1999/xlink" preserveAspectRatio="xMidYMid meet" viewBox="0 0 640 640" width="640" height="640"><defs><path d="M56 80C25.12 80 0 105.12 0 136C0 160 0 352 0 376C0 406.88 25.12 432 56 432C96 432 416 432 456 432C486.88 432 512 406.88 512 376C512 352 512 160 512 136C512 105.12 486.88 80 456 80C376 80 96 80 56 80ZM456 112C469.23 112 480 122.77 480 136C480 138.13 480 148.8 480 168L32 168C32 148.8 32 138.13 32 136C32 122.77 42.77 112 56 112C136 112 416 112 456 112ZM56 400C42.77 400 32 389.23 32 376C32 364.27 32 305.6 32 200L480 200C480 305.6 480 364.27 480 376C480 389.23 469.23 400 456 400C376 400 96 400 56 400Z" id="a6QNRYIeMB"></path><path d="M96 352C87.16 352 80 344.84 80 336C80 334.4 80 321.6 80 320C80 311.16 87.16 304 96 304C97.6 304 110.4 304 112 304C120.84 304 128 311.16 128 320C128 321.6 128 334.4 128 336C128 344.84 120.84 352 112 352C108.8 352 97.6 352 96 352Z" id="b50jelHIIt"></path></defs><g><g><g><use xlink:href="#a6QNRYIeMB" opacity="1" fill="#ffffff" fill-opacity="1"></use><g><use xlink:href="#a6QNRYIeMB" opacity="1" fill-opacity="0" stroke="#000000" stroke-width="1" stroke-opacity="0"></use></g></g><g><use xlink:href="#b50jelHIIt" opacity="1" fill="#ffffff" fill-opacity="1"></use><g><use xlink:href="#b50jelHIIt" opacity="1" fill-opacity="0" stroke="#000000" stroke-width="1" stroke-opacity="0"></use></g></g></g></g></svg>