<?xml version="1.0" encoding="UTF-8" standalone="no"?>
<!DOCTYPE svg PUBLIC "-//W3C//DTD SVG 1.1//EN" "http://www.w3.org/Graphics/SVG/1.1/DTD/svg11.dtd">
<svg version="1.1" xmlns="http://www.w3.org/2000/svg" xmlns:xlink="http://www.w3.org/1999/xlink" preserveAspectRatio="xMidYMid meet" viewBox="-1 79 516 356" width="512" height="352"><defs><path d="M0 136C0 160 0 352 0 376C0 406.88 25.12 432 56 432C96 432 416 432 456 432C486.88 432 512 406.88 512 376C512 352 512 160 512 136C512 105.12 486.88 80 456 80C376 80 96 80 56 80C25.12 80 0 105.12 0 136ZM480 136C480 138.13 480 148.8 480 168C435.2 168 76.8 168 32 168C32 148.8 32 138.13 32 136C32 122.77 42.77 112 56 112C136 112 416 112 456 112C469.23 112 480 122.77 480 136ZM32 376C32 364.27 32 305.6 32 200C76.8 200 435.2 200 480 200C480 305.6 480 364.27 480 376C480 389.23 469.23 400 456 400C376 400 96 400 56 400C42.77 400 32 389.23 32 376Z" id="b2aoGuYeIJ"></path></defs><g><g><use xlink:href="#b2aoGuYeIJ" opacity="1" fill="#ffffff" fill-opacity="1"></use><g><use xlink:href="#b2aoGuYeIJ" opacity="1" fill-opacity="0" stroke="#000000" stroke-width="1" stroke-opacity="0"></use></g></g></g></svg>