<?xml version="1.0" encoding="UTF-8" standalone="no"?>
<!DOCTYPE svg PUBLIC "-//W3C//DTD SVG 1.1//EN" "http://www.w3.org/Graphics/SVG/1.1/DTD/svg11.dtd">
<svg version="1.1" xmlns="http://www.w3.org/2000/svg" xmlns:xlink="http://www.w3.org/1999/xlink" preserveAspectRatio="xMidYMid meet" viewBox="0 0 640 640" width="640" height="640"><defs><path d="M267.95 14.94C266.61 23.14 255.9 88.72 254.56 96.91C238.46 101.6 223.11 107.92 208.65 115.79C201.88 110.96 147.77 72.31 141 67.48C135.54 63.57 128.05 64.18 123.29 68.93C117.93 74.28 75.09 117.08 69.73 122.43C65.01 127.15 64.36 134.59 68.2 140.06C72.96 146.87 111.03 201.33 115.79 208.13C107.8 222.69 101.34 238.12 96.54 254.38C88.38 255.73 23.08 266.59 14.92 267.95C8.29 269.07 3.44 274.81 3.44 281.53C3.44 289.1 3.44 349.66 3.44 357.23C3.43 363.91 8.21 369.64 14.78 370.81C22.95 372.26 88.29 383.83 96.46 385.28C101.23 401.5 107.65 416.95 115.65 431.52C110.83 438.26 72.29 492.17 67.48 498.91C63.57 504.38 64.18 511.87 68.93 516.63C74.28 521.99 117.1 564.83 122.45 570.19C127.17 574.9 134.59 575.56 140.06 571.74C146.88 566.97 201.45 528.77 208.27 524C222.78 531.91 238.17 538.28 254.32 543.01C255.68 551.21 266.59 616.88 267.95 625.08C269.06 631.72 274.8 636.59 281.53 636.59C289.1 636.59 349.66 636.59 357.23 636.59C363.92 636.6 369.65 631.8 370.81 625.22C372.27 616.98 383.95 551.06 385.41 542.82C401.5 538.02 416.81 531.56 431.25 523.59C438.11 528.41 493.04 566.95 499.91 571.77C505.38 575.61 512.82 574.96 517.55 570.24C522.9 564.88 565.72 522.02 571.07 516.66C575.84 511.88 576.44 504.36 572.5 498.89C567.6 492.09 528.44 437.72 523.54 430.92C531.37 416.56 537.67 401.33 542.36 385.36C550.64 383.9 616.91 372.29 625.19 370.84C631.78 369.68 636.57 363.95 636.56 357.26C636.56 349.69 636.56 289.13 636.56 281.56C636.56 274.82 631.68 269.07 625.03 267.98C616.76 266.63 550.6 255.81 542.33 254.46C537.62 238.5 531.29 223.3 523.46 208.94C528.29 202.06 566.92 147.02 571.74 140.14C575.58 134.67 574.94 127.24 570.21 122.51C564.86 117.16 522.01 74.33 516.66 68.98C511.88 64.22 504.36 63.61 498.89 67.56C492.11 72.43 437.89 111.42 431.11 116.3C416.67 108.36 401.35 101.94 385.22 97.18C383.78 88.95 372.25 23.05 370.81 14.81C369.66 8.21 363.93 3.4 357.23 3.41C352.19 3.41 326.95 3.41 281.53 3.41C273.21 6.67 268.68 10.51 267.95 14.94ZM345.67 30.94C353.9 77.9 358.47 103.98 359.39 109.2C360.32 114.56 364.32 118.87 369.6 120.2C389.73 125.21 408.64 133.16 425.9 143.61C430.61 146.47 436.58 146.24 441.06 143.02C445.35 139.93 466.83 124.5 505.47 96.73L542.55 133.8C515.03 173.01 499.74 194.8 496.68 199.16C493.55 203.61 493.34 209.49 496.15 214.16C506.49 231.38 514.34 250.16 519.35 270.18C520.68 275.51 525.06 279.54 530.48 280.43C535.71 281.28 561.9 285.57 609.03 293.28L609.03 345.7C561.8 353.99 535.56 358.6 530.32 359.52C524.95 360.47 520.65 364.5 519.35 369.79C514.39 389.78 506.54 408.57 496.2 425.79C493.36 430.5 493.6 436.46 496.82 440.93C499.92 445.23 515.42 466.75 543.33 505.47L506.25 542.57C467.11 515.1 445.36 499.84 441.01 496.79C436.53 493.65 430.62 493.47 425.95 496.31C408.78 506.75 389.85 514.74 369.79 519.83C364.54 521.16 360.55 525.44 359.6 530.77C358.67 535.99 354.04 562.09 345.7 609.06L293.2 609.06C285.42 562.3 281.1 536.32 280.24 531.12C279.34 525.7 275.3 521.34 269.97 520.02C249.83 515.05 230.83 507.11 213.46 496.68C208.8 493.89 202.93 494.1 198.48 497.22C194.17 500.24 172.59 515.36 133.75 542.57L96.65 505.42C124.1 467.05 139.35 445.73 142.4 441.46C145.6 436.98 145.82 431.03 142.97 426.33C132.42 408.9 124.45 389.91 119.42 369.68C118.1 364.42 113.82 360.42 108.47 359.47C103.31 358.55 77.47 353.96 30.97 345.7L30.97 293.2C77.44 285.47 103.26 281.18 108.42 280.32C113.83 279.42 118.19 275.4 119.52 270.08C124.6 249.77 132.57 230.79 143.07 213.4C145.9 208.74 145.72 202.85 142.59 198.38C139.58 194.07 124.5 172.52 97.37 133.75L134.5 96.65C173 124.16 194.39 139.45 198.67 142.51C203.13 145.69 209.06 145.92 213.75 143.1C231.04 132.72 250.07 124.84 270.24 119.9C275.6 118.58 279.65 114.19 280.53 108.74C281.38 103.56 285.62 77.62 293.25 30.94L345.67 30.94ZM209.88 320C209.88 380.65 259.35 430.12 320 430.12C380.65 430.12 430.12 380.65 430.12 320C430.12 259.35 380.65 209.88 320 209.88C259.35 209.88 209.88 259.35 209.88 320ZM402.59 320C402.59 365.78 365.78 402.59 320 402.59C274.22 402.59 237.41 365.78 237.41 320C237.41 274.22 274.22 237.41 320 237.41C365.78 237.41 402.59 274.22 402.59 320Z" id="a4VVh5iAG4"></path></defs><g><g><g><use xlink:href="#a4VVh5iAG4" opacity="1" fill="#ffffff" fill-opacity="1"></use><g><use xlink:href="#a4VVh5iAG4" opacity="1" fill-opacity="0" stroke="#000000" stroke-width="1" stroke-opacity="0"></use></g></g></g></g></svg>