<?xml version="1.0" encoding="UTF-8" standalone="no"?>
<!DOCTYPE svg PUBLIC "-//W3C//DTD SVG 1.1//EN" "http://www.w3.org/Graphics/SVG/1.1/DTD/svg11.dtd">
<svg version="1.1" xmlns="http://www.w3.org/2000/svg" xmlns:xlink="http://www.w3.org/1999/xlink" preserveAspectRatio="xMidYMid meet" viewBox="0 0 640 640" width="640" height="640"><defs><path d="M488 296C492.42 296 496 292.42 496 288C496 281.6 496 230.4 496 224C496 219.58 492.42 216 488 216C483.57 216 448.16 216 443.74 216C438.87 193.06 429.82 171.21 417.04 151.54C420.17 148.41 445.18 123.34 448.3 120.21C451.42 117.08 451.42 112.03 448.3 108.9C443.78 104.38 407.62 68.22 403.1 63.7C399.98 60.59 394.92 60.59 391.8 63.7C388.67 66.83 363.59 91.83 360.46 94.96C340.79 82.18 318.94 73.13 296 68.26C296 63.84 296 28.43 296 24C296 19.58 292.42 16 288 16C281.6 16 230.4 16 224 16C219.58 16 216 19.58 216 24C216 28.43 216 63.84 216 68.26C193.06 73.13 171.21 82.18 151.54 94.96C148.41 91.83 123.34 66.82 120.21 63.7C117.08 60.58 112.03 60.58 108.9 63.7C104.38 68.22 68.22 104.38 63.7 108.9C60.59 112.02 60.59 117.08 63.7 120.2C66.83 123.33 91.84 148.4 94.97 151.54C82.18 171.2 73.13 193.05 68.26 216C63.84 216 28.43 216 24 216C19.58 216 16 219.58 16 224C16 230.4 16 281.6 16 288C16 292.42 19.58 296 24 296C28.43 296 63.84 296 68.26 296C73.13 318.94 82.18 340.79 94.96 360.46C91.83 363.59 66.82 388.66 63.7 391.79C60.58 394.92 60.58 399.97 63.7 403.1C68.22 407.62 104.38 443.78 108.9 448.3C112.02 451.41 117.08 451.41 120.2 448.3C123.33 445.17 148.4 420.16 151.54 417.03C171.2 429.82 193.05 438.87 216 443.74C216 448.16 216 483.57 216 488C216 492.42 219.58 496 224 496C230.4 496 281.6 496 288 496C292.42 496 296 492.42 296 488C296 483.57 296 448.16 296 443.74C318.94 438.85 340.78 429.79 360.43 417C366.96 423.53 419.18 475.74 425.7 482.27C441.39 497.82 466.72 497.71 482.27 482.02C497.73 466.43 497.73 441.3 482.27 425.7C475.74 419.18 423.53 366.96 417 360.43C429.79 340.78 438.85 318.94 443.74 296C452.59 296 479.15 296 488 296ZM437.02 470.96C437.02 470.96 437.02 470.96 437.02 470.96C421.7 455.64 299.15 333.1 283.83 317.78C276.32 310.28 266.12 306.09 255.5 306.14C253.83 306.14 252.16 306.23 250.5 306.43C215.44 310.64 183.6 285.63 179.39 250.57C178.42 242.48 179 234.27 181.11 226.4C184.64 229.93 212.87 258.17 216.4 261.7C217.9 263.2 219.93 264.04 222.06 264.04C225.45 264.04 252.61 264.04 256 264.04C260.42 264.04 264 260.46 264 256.04C264 252.64 264 225.45 264 222.06C264 219.93 263.16 217.9 261.66 216.4C258.13 212.87 229.93 184.64 226.4 181.11C260.52 171.99 295.57 192.26 304.69 226.38C306.79 234.24 307.37 242.43 306.4 250.5C304.84 262.77 309.03 275.07 317.75 283.83C333.07 299.15 455.64 421.7 470.96 437.02C480.33 446.39 480.33 461.58 470.96 470.96C470.96 470.96 470.96 470.96 470.96 470.96C461.59 480.33 446.39 480.33 437.02 470.96ZM329.1 272.56C323.85 267.26 321.35 259.83 322.33 252.44C327.61 208.61 296.36 168.79 252.53 163.5C237.44 161.68 222.15 164.2 208.45 170.76C204.46 172.67 202.79 177.45 204.7 181.43C205.09 182.25 205.62 182.99 206.26 183.63C209.04 186.41 222.95 200.33 248 225.37L248 248L225.37 248C200.33 222.95 186.41 209.04 183.63 206.26C180.51 203.13 175.44 203.13 172.32 206.25C171.68 206.89 171.15 207.63 170.76 208.45C151.7 248.27 168.54 296 208.36 315.06C222.05 321.61 237.33 324.13 252.4 322.32C259.79 321.35 267.22 323.85 272.52 329.1C276.64 333.21 309.56 366.13 313.67 370.24C250.53 402.14 173.49 376.81 141.6 313.67C109.7 250.53 135.03 173.49 198.17 141.6C261.3 109.7 338.34 135.03 370.24 198.17C388.59 234.48 388.59 277.36 370.24 313.67C362.01 305.45 337.32 280.78 329.1 272.56ZM405.45 348.92C403.11 346.58 384.4 327.87 382.06 325.53C420.53 255.82 395.2 168.12 325.49 129.65C255.78 91.18 168.08 116.5 129.61 186.22C91.14 255.93 116.46 343.63 186.18 382.1C229.53 406.02 282.13 406.02 325.49 382.1C327.83 384.44 346.54 403.15 348.88 405.49C329.86 417.34 308.73 425.42 286.65 429.28C282.82 429.94 280.02 433.24 280 437.12C280 439.98 280 454.27 280 480L232 480C232 454.27 232 439.98 232 437.12C232 433.23 229.19 429.9 225.35 429.24C200.12 424.82 176.16 414.9 155.2 400.17C152.02 397.93 147.69 398.31 144.94 401.06C142.92 403.07 132.81 413.17 114.61 431.34L80.7 397.43C98.87 379.23 108.97 369.12 110.98 367.1C113.73 364.35 114.11 360.02 111.87 356.84C97.14 335.86 87.21 311.9 82.8 286.65C82.14 282.79 78.79 279.98 74.88 280C72.02 280 57.73 280 32 280L32 232C57.73 232 72.02 232 74.88 232C78.77 232 82.1 229.19 82.76 225.35C87.18 200.12 97.1 176.16 111.83 155.2C114.07 152.02 113.69 147.69 110.94 144.94C108.93 142.92 98.83 132.81 80.66 114.61L114.57 80.7C132.77 98.87 142.88 108.97 144.9 110.98C147.65 113.73 151.98 114.11 155.16 111.87C176.14 97.14 200.1 87.21 225.35 82.8C229.21 82.14 232.02 78.79 232 74.88C232 72.02 232 57.73 232 32L280 32C280 57.73 280 72.02 280 74.88C280 78.77 282.81 82.1 286.65 82.76C311.9 87.17 335.86 97.1 356.84 111.83C360.02 114.07 364.35 113.69 367.1 110.94C369.12 108.93 379.23 98.83 397.43 80.66L431.34 114.57C413.17 132.77 403.07 142.88 401.06 144.9C398.31 147.65 397.93 151.98 400.17 155.16C414.9 176.14 424.83 200.1 429.24 225.35C429.9 229.19 433.23 232 437.12 232C439.98 232 454.27 232 480 232L480 280C454.27 280 439.98 280 437.12 280C433.23 280 429.9 282.81 429.24 286.65C425.38 308.77 417.3 329.9 405.45 348.92Z" id="mmny3oPdv"></path><path d="M420.05 431.36C423.23 434.43 428.29 434.34 431.36 431.16C434.35 428.06 434.35 423.15 431.36 420.05C421.74 410.43 344.82 333.5 335.2 323.88C332.07 320.75 327.01 320.75 323.88 323.88C320.75 327.01 320.75 332.07 323.88 335.2C343.11 354.43 400.81 412.13 420.05 431.36Z" id="f2vg9ElmC4"></path><path d="M448.34 459.65C451.51 462.72 456.58 462.63 459.65 459.45C462.64 456.35 462.64 451.44 459.65 448.34C459.08 447.77 454.56 443.24 453.99 442.67C450.87 439.55 445.8 439.55 442.67 442.67C439.55 445.8 439.55 450.87 442.67 453.99C443.8 455.12 447.2 458.52 448.34 459.65Z" id="e7O0LAI2p"></path><path d="" id="b26r051aGG"></path><path d="M371.5 305.25L392.75 323.25L388 328.75L381.75 325.25L370 313.25L371.5 305.25Z" id="e1sKMqc0fi"></path></defs><g><g><g><use xlink:href="#mmny3oPdv" opacity="1" fill="#fac94b" fill-opacity="1"></use><g><use xlink:href="#mmny3oPdv" opacity="1" fill-opacity="0" stroke="#000000" stroke-width="1" stroke-opacity="0"></use></g></g><g><use xlink:href="#f2vg9ElmC4" opacity="1" fill="#fac94b" fill-opacity="1"></use><g><use xlink:href="#f2vg9ElmC4" opacity="1" fill-opacity="0" stroke="#000000" stroke-width="1" stroke-opacity="0"></use></g></g><g><use xlink:href="#e7O0LAI2p" opacity="1" fill="#fac94b" fill-opacity="1"></use><g><use xlink:href="#e7O0LAI2p" opacity="1" fill-opacity="0" stroke="#000000" stroke-width="1" stroke-opacity="0"></use></g></g><g><g><use xlink:href="#b26r051aGG" opacity="1" fill-opacity="0" stroke="#000000" stroke-width="1" stroke-opacity="1"></use></g></g><g><g><use xlink:href="#e1sKMqc0fi" opacity="1" fill-opacity="0" stroke="#000000" stroke-width="0" stroke-opacity="1"></use></g></g></g></g></svg>